<?xml version="1.0" encoding="UTF-8"?>
<svg width="165px" height="30px" viewBox="0 0 165 30" version="1.1" xmlns="http://www.w3.org/2000/svg" xmlns:xlink="http://www.w3.org/1999/xlink">
    <!-- Generator: Sketch 52.5 (67469) - http://www.bohemiancoding.com/sketch -->
    <title>Group</title>
    <desc>Created with Sketch.</desc>
    <g id="Splash-Page" stroke="none" stroke-width="1" fill="none" fill-rule="evenodd">
        <g id="Splash---Desktop-HD" transform="translate(-202.000000, -40.000000)" fill="#1A1A1A">
            <g id="Group" transform="translate(202.000000, 40.000000)">
                <text id="Daily-Chinese" font-family="DINAlternate-Bold, DIN Alternate" font-size="14" font-weight="bold" letter-spacing="2.1">
                    <tspan x="49" y="20">DAILY CHINESE</tspan>
                </text>
                <g id="logo" fill-rule="nonzero">
                    <path d="M36.6337787,17.9628 C36.6231439,17.9084006 36.584639,17.8636848 36.5325215,17.8452098 C36.4804039,17.8267348 36.4224311,17.8372505 36.3800689,17.8728632 C35.6940732,18.4463368 34.5316434,18.9283263 33.5327064,18.3741789 C32.3111081,17.6964632 31.8111515,17.3658 30.7688221,16.7622947 L30.4772306,16.5944211 C30.2820116,16.4820204 30.041814,16.4826585 29.8471915,16.5960947 L18.6877396,23.1007579 C18.4926466,23.2144707 18.251798,23.2148201 18.0563779,23.1016737 L6.81662809,16.5939474 C6.621365,16.4808936 6.38073357,16.4811465 6.18570723,16.5946105 L5.8975166,16.7622947 C4.8538017,17.3758737 4.43590638,17.6966842 3.27215404,18.3741789 C2.28228596,18.9504316 0.990875745,18.4473158 0.283813617,17.8687263 C0.240700145,17.8340146 0.182563491,17.8245913 0.130741109,17.8439149 C0.0789187264,17.8632385 0.0410437034,17.9084628 0.0310170213,17.9629895 C-0.0137866755,18.1890447 -0.0102448316,18.4220614 0.0414085106,18.6466421 C0.156411175,19.0902711 0.420156743,19.4806925 0.78833617,19.7523158 L17.7502068,29.5731158 C18.1410471,29.7994086 18.6227443,29.7987099 19.0129302,29.5712842 L35.8605889,19.7510211 C36.4682659,19.377848 36.7774685,18.6627 36.6337472,17.9628 L36.6337787,17.9628 Z" id="Shape"></path>
                    <path d="M32.9830911,11.3857895 C32.9738607,11.3307206 32.9360934,11.2847448 32.8839635,11.2651169 C32.8318337,11.245489 32.7732263,11.2551779 32.730137,11.2905474 C32.1769004,11.7342947 31.272526,12.0909474 30.4927864,11.6583789 C29.5155455,11.1162 29.1155677,10.8516632 28.2816979,10.3688842 L27.3144706,9.81205263 C27.119254,9.69967392 26.8790718,9.70032403 26.684463,9.81375789 L18.6798672,14.4794526 C18.4847743,14.5931655 18.2439257,14.5935148 18.0485055,14.4803684 L9.97860085,9.80794737 C9.78332977,9.69488142 9.54268283,9.69513435 9.34764851,9.80861053 L8.38464085,10.3688842 C7.54970043,10.8597474 7.21537787,11.1163579 6.28430043,11.6583789 C5.51026043,12.1090105 4.50568681,11.7345789 3.9326434,11.2852105 C3.88965528,11.2508883 3.83179564,11.2418675 3.78044599,11.2614815 C3.72909635,11.2810955 3.69188189,11.3264319 3.68255489,11.3807368 C3.65637879,11.5455053 3.66222776,11.7137958 3.69977957,11.8763368 C3.7917697,12.2312173 4.00272923,12.5435447 4.29722723,12.7608632 L6.50091574,14.0366526 L17.7404136,20.5443474 C18.1312539,20.7706401 18.6129511,20.7699414 19.003137,20.5425158 L30.1617072,14.0383579 L32.3551302,12.7598526 C32.659028,12.5642694 32.8775415,12.2602681 32.9664962,11.9093053 C33.0044945,11.7373598 33.0101227,11.5598081 32.9830911,11.3857895 Z" id="Shape"></path>
                    <path d="M19.3146298,9.22421053 L19.3146298,2.41875789 C19.3146051,2.36167894 19.3453009,2.30903039 19.394914,2.28105674 C19.444527,2.25308308 19.5053323,2.25413999 19.5539489,2.28382105 L25.1364145,5.68585263 C25.1833952,5.71449354 25.2120753,5.76563685 25.2120753,5.82077368 C25.2120753,5.87591052 25.1833952,5.92705383 25.1364145,5.95569474 L19.553886,9.35905263 C19.5052871,9.38869161 19.4445258,9.3897392 19.3949397,9.36179303 C19.3453536,9.33384686 19.3146531,9.28125243 19.3146298,9.22421053 Z M29.4187472,4.85052632 C29.0269251,5.23894737 28.2407932,5.62765263 27.5744783,5.25789474 C26.8318017,4.84585263 26.5277719,4.64482105 25.894017,4.27790526 L18.6474962,0.0845368421 C18.4526953,-0.0281988072 18.2127302,-0.0281988072 18.0179294,0.0845368421 L10.7722272,4.27803158 C10.1376851,4.65107368 9.88359745,4.84613684 9.17603149,5.25802105 C8.51746298,5.64142105 7.63935064,5.23907368 7.24756,4.85065263 C7.18154757,5.03440956 7.16912796,5.23322846 7.2117566,5.42381053 C7.28168089,5.6935135 7.44201501,5.93087426 7.66583319,6.09603158 L10.0964655,7.50315789 L17.7310298,11.9235789 C18.1218701,12.1498717 18.6035673,12.149173 18.9937532,11.9217474 L26.5656851,7.50821053 L28.9898936,6.09521053 C29.2208436,5.9465613 29.3868985,5.71551795 29.4544877,5.44878947 C29.497141,5.24982682 29.4847826,5.04295888 29.4187472,4.85052632 Z" id="Shape"></path>
                </g>
            </g>
        </g>
    </g>
</svg>